<svg xmlns="http://www.w3.org/2000/svg" width="35.849" height="37.58" viewBox="0 0 35.849 37.58">
  <g id="account-setting" transform="translate(-909.638 -151.17)">
    <path id="Vector" d="M0,10.224V0" transform="translate(936.922 176.776)" fill="none" stroke="#252831" stroke-linecap="round" stroke-linejoin="round" stroke-width="3.5"/>
    <path id="Vector-2" data-name="Vector" d="M0,5.112V0" transform="translate(936.922 152.92)" fill="none" stroke="#252831" stroke-linecap="round" stroke-linejoin="round" stroke-width="3.5"/>
    <path id="Vector-3" data-name="Vector" d="M13.632,6.816A6.816,6.816,0,1,1,6.816,0,6.816,6.816,0,0,1,13.632,6.816Z" transform="translate(930.106 158.032)" fill="none" stroke="#252831" stroke-linecap="round" stroke-linejoin="round" stroke-width="3.5"/>
    <path id="Vector-4" data-name="Vector" d="M0,5.112V0" transform="translate(918.204 181.888)" fill="none" stroke="#252831" stroke-linecap="round" stroke-linejoin="round" stroke-width="3.5"/>
    <path id="Vector-5" data-name="Vector" d="M0,10.224V0" transform="translate(918.204 152.92)" fill="none" stroke="#252831" stroke-linecap="round" stroke-linejoin="round" stroke-width="3.5"/>
    <path id="Vector-6" data-name="Vector" d="M13.632,6.816A6.816,6.816,0,1,1,6.816,0,6.816,6.816,0,0,1,13.632,6.816Z" transform="translate(911.388 168.256)" fill="none" stroke="#252831" stroke-linecap="round" stroke-linejoin="round" stroke-width="3.5"/>
  </g>
</svg>
