<svg xmlns="http://www.w3.org/2000/svg" width="38.483" height="34.617" viewBox="0 0 38.483 34.617">
  <g id="like" transform="translate(-378.071 -152)">
    <g id="Group_19" data-name="Group 19" transform="translate(0 1)">
      <path id="Vector" d="M18.842,31.42a3.869,3.869,0,0,1-2.2,0C11.5,29.664,0,22.337,0,9.918A9.889,9.889,0,0,1,9.864,0a9.785,9.785,0,0,1,7.877,3.974A9.841,9.841,0,0,1,35.483,9.918C35.483,22.337,23.987,29.664,18.842,31.42Z" transform="translate(379.571 152.5)" fill="none" stroke="#252831" stroke-linecap="round" stroke-linejoin="round" stroke-width="3"/>
      <path id="Vector-2" data-name="Vector" d="M18.842,31.42a3.869,3.869,0,0,1-2.2,0C11.5,29.664,0,22.337,0,9.918A9.889,9.889,0,0,1,9.864,0a9.785,9.785,0,0,1,7.877,3.974A9.841,9.841,0,0,1,35.483,9.918C35.483,22.337,23.987,29.664,18.842,31.42Z" transform="translate(379.571 152.5)" fill="none" stroke="#252831" stroke-linecap="round" stroke-linejoin="round" stroke-width="3"/>
      <path id="Path_3" data-name="Path 3" d="M858.83-1048.879a4.25,4.25,0,0,1,4.167,5.192" transform="translate(-454.183 1207.816)" fill="none" stroke="#252831" stroke-linecap="round" stroke-width="3"/>
    </g>
  </g>
</svg>
