<svg xmlns="http://www.w3.org/2000/svg" width="29.659" height="35.774" viewBox="0 0 29.659 35.774">
  <g id="notification" transform="translate(-569.098 -151.726)">
    <path id="Vector" d="M13.35,0A9.963,9.963,0,0,0,3.395,9.955v4.8a7.929,7.929,0,0,1-.946,3.418L.541,21.338A3.184,3.184,0,0,0,2.333,26.2a34.713,34.713,0,0,0,22.018,0,3.322,3.322,0,0,0,1.792-4.862l-1.908-3.169a8.147,8.147,0,0,1-.929-3.418v-4.8A9.985,9.985,0,0,0,13.35,0Z" transform="translate(570.616 153.226)" fill="none" stroke="#252831" stroke-linecap="round" stroke-width="3"/>
    <path id="Vector-2" data-name="Vector" d="M9.828.579c0,2.738-2.113,4.4-4.85,4.4A5,5,0,0,1,1.46,3.518,4.1,4.1,0,0,1,.062.579" transform="translate(578.989 181.022)" fill="none" stroke="#252831" stroke-linecap="round" stroke-width="3"/>
  </g>
</svg>
