<svg xmlns="http://www.w3.org/2000/svg" width="30.264" height="35.08" viewBox="0 0 30.264 35.08">
  <g id="saved" transform="translate(-810.661 -151.5)">
    <path id="Vector" d="M5.2,28.387a2.819,2.819,0,0,1,4.475.241l1.62,2.165a2.788,2.788,0,0,0,4.7,0l1.62-2.165a2.819,2.819,0,0,1,4.475-.241c2.855,3.047,5.18,2.037,5.18-2.229V8.083C27.264,1.62,25.757,0,19.695,0H7.57C1.508,0,0,1.62,0,8.083V26.142C.016,30.424,2.358,31.418,5.2,28.387Z" transform="translate(812.161 153)" fill="none" stroke="#252831" stroke-linecap="round" stroke-linejoin="round" stroke-width="3"/>
    <path id="Vector-2" data-name="Vector" d="M0,0H8.821" transform="translate(821.401 165.83)" fill="none" stroke="#252831" stroke-linecap="round" stroke-linejoin="round" stroke-width="3"/>
  </g>
</svg>
